<svg xmlns="http://www.w3.org/2000/svg" viewBox="0 0 227.79 89.24"><defs><style>.a{fill:none;}.b{fill:#1ea6e4;}.c,.d{fill:#232321;}.c{stroke:#232321;stroke-miterlimit:10;stroke-width:0.64px;}</style></defs><title>logo</title><rect class="a" x="-78.87" y="-61.59" width="366.67" height="227.33"/><path class="b" d="M18.64,35.36c0,.22-.29.39-1,.52l-1,.17c-.39,0-1.89.3-4.49.78l-5.11.89-1.14.2L5.26,38q-1,.18-1.08-.18c0-.17,0-.27.15-.32a14.75,14.75,0,0,1,1.57-.32A3.75,3.75,0,0,0,8,36.38a2.07,2.07,0,0,0,.05-1.14L5.42,20.1q-.86-4.85-1-5.24c-.16-.42-.57-.57-1.25-.45l-2.06.36c-.7.15-1.07.1-1.11-.14s.4-.37,1.28-.61a13.92,13.92,0,0,0,5.6-2.74l1.3-1.2,1.38-1.2.27.58.12.65L13.4,29.92l.74,4.21A1.44,1.44,0,0,0,16,35.44C17.72,35.09,18.59,35.06,18.64,35.36Z"/><path class="b" d="M41.09,39.3a9.25,9.25,0,0,1-2.75,8.26,16.86,16.86,0,0,1-9.69,4.8,12,12,0,0,1-7-.46,5.17,5.17,0,0,1-3.19-4,4.14,4.14,0,0,1,.62-3.2A4.06,4.06,0,0,1,21.88,43c2.3-.4,3.64.45,4,2.55.29,1.63-.62,3-2.71,4q-1.11.57-1,1c.06.38.61.68,1.65.92a7.55,7.55,0,0,0,3,.11A7.26,7.26,0,0,0,32.14,48,10.72,10.72,0,0,0,33,40.71c-.51-2.88-1.69-4.79-3.57-5.72a6.67,6.67,0,0,0-4.17-.53l-.72.13-1.16.2c-.41.07-.64,0-.68-.3a.43.43,0,0,1,.14-.49,12.06,12.06,0,0,1,1.7-.66,5.29,5.29,0,0,0,3.05-3.07,8.61,8.61,0,0,0,.55-5.08A6.34,6.34,0,0,0,25.69,21,5.86,5.86,0,0,0,21,20a6.1,6.1,0,0,0-2.92,1.29,2.18,2.18,0,0,0-1,2c.05.3.31.45.77.44q4,0,4.49,2.68a3,3,0,0,1-.44,2.3,2.92,2.92,0,0,1-2,1.21,3.78,3.78,0,0,1-3-.57,4.07,4.07,0,0,1-1.53-2.72,6.33,6.33,0,0,1,1.78-5.73,11.59,11.59,0,0,1,6.66-3.23,14.08,14.08,0,0,1,8.4.7,6.47,6.47,0,0,1,2.54,10.22,13,13,0,0,1-5.61,4l.09.24a13.15,13.15,0,0,1,6.93.68A7.27,7.27,0,0,1,41.09,39.3Z"/><path class="b" d="M57.16,24.76A14.47,14.47,0,0,1,56.09,34a8.12,8.12,0,0,1-6,4.61,8.56,8.56,0,0,1-7.47-2.45,14.1,14.1,0,0,1-4.36-8.29Q37.05,21,40.7,16.58a8,8,0,0,1,5-2.88,7.7,7.7,0,0,1,5,.68,11.18,11.18,0,0,1,4.1,4.06A17.41,17.41,0,0,1,57.16,24.76ZM51,25.2q-1.37-7.78-2.9-9.9a2.27,2.27,0,0,0-2.37-1c-1.24.22-2,1.23-2.19,3a31.61,31.61,0,0,0,.61,8.48Q45.66,34.59,47.75,37A2.34,2.34,0,0,0,50,38c1.23-.21,1.9-1.22,2-3A48.34,48.34,0,0,0,51,25.2Z"/><path class="b" d="M69.81,25.57q0,.18-.27.57a3.46,3.46,0,0,1-2.24,1.31,1.91,1.91,0,0,1-1.41-.16A2.31,2.31,0,0,1,65.1,26a3.13,3.13,0,0,1-2.46,2.33A2.15,2.15,0,0,1,61,28a2.2,2.2,0,0,1-.88-1.48q-.5-2.85,4.29-4.21l-.08-.48a14.36,14.36,0,0,0-.64-2.75l0-.11a1.51,1.51,0,0,0-1.8-.85,1.71,1.71,0,0,0-1.12.64,1.2,1.2,0,0,0-.3.91c0,.16.22.21.59.18.55-.05.87.24,1,.85a1.12,1.12,0,0,1-.18.88,1.17,1.17,0,0,1-.79.48,1.47,1.47,0,0,1-1.14-.21,1.34,1.34,0,0,1-.6-.93A2.29,2.29,0,0,1,59.92,19a4,4,0,0,1,2.41-1.24,5,5,0,0,1,3.42.27,3.29,3.29,0,0,1,1.17,2.31l.67,3.86c.14.75.22,1.19.26,1.3.18.62.45.9.82.84a1.6,1.6,0,0,0,.85-.71c.06-.09.12-.14.16-.14S69.8,25.49,69.81,25.57Zm-5.18-1.86-.2-1.11a2.38,2.38,0,0,0-1.75,2.86c.18,1.06.63,1.52,1.36,1.4a.92.92,0,0,0,.74-.83A7.86,7.86,0,0,0,64.63,23.71Z"/><path class="b" d="M81.85,24.56c0,.12-.16.22-.53.28l-.59.1-1.58.28-.72.13-1.94.33c-.21,0-.33,0-.35-.11s.06-.16.24-.19l.18,0c.38-.07.6-.16.65-.27a2.79,2.79,0,0,0-.08-1l-.76-4.38a7.53,7.53,0,0,0-.82-2.85,1.08,1.08,0,0,0-1-.24,1.57,1.57,0,0,0-1,.63,1.43,1.43,0,0,0-.26,1.16l1.19,6.82a.48.48,0,0,0,.25.32,2.53,2.53,0,0,0,.75,0c.12,0,.19,0,.21.1a.17.17,0,0,1-.13.19L74.35,26c-.64.11-1.18.21-1.6.3-.82.17-1.66.34-2.52.48-.18,0-.28,0-.3-.11s.2-.22.66-.3.71-.21.76-.41v-.32l-.9-5.18c-.26-1.46-.41-2.21-.45-2.27-.08-.22-.3-.29-.67-.23l-.51.09-.25,0c-.24.05-.37,0-.39-.08s.06-.17.24-.22A8.22,8.22,0,0,0,72.27,16a.7.7,0,0,1,.23-.13q.18,0,.24.33L73,17.5a3.77,3.77,0,0,1,2.8-2.09,2.5,2.5,0,0,1,2.76.91,4.1,4.1,0,0,1,.53,1.22c.11.46.3,1.42.56,2.88l.57,3.27a1.64,1.64,0,0,0,.25.8c.09.07.34.07.76,0S81.83,24.44,81.85,24.56Z"/><path class="b" d="M89,20.24a3.4,3.4,0,0,1-.5,2.61,3.2,3.2,0,0,1-2.22,1.36,5.19,5.19,0,0,1-1.77-.07,4.15,4.15,0,0,0-1.11-.1.54.54,0,0,0-.51.42c-.05.23-.1.36-.14.36s-.15,0-.17-.13,0-.24,0-.44-.09-.8-.21-1.51l0-.23-.09-.5-.07-.38c0-.17,0-.26.07-.27s.18.08.26.3a3.4,3.4,0,0,0,1.5,1.8,3.22,3.22,0,0,0,2.25.43,1.61,1.61,0,0,0,1.37-2A1.29,1.29,0,0,0,87,21a5.59,5.59,0,0,0-1.82-.45,6,6,0,0,1-2.69-.94,2.85,2.85,0,0,1-1.11-1.91,3.1,3.1,0,0,1,.51-2.41,3,3,0,0,1,2-1.31,7.85,7.85,0,0,1,1.77,0H86c.33-.06.54-.3.64-.74a.14.14,0,0,1,.09-.13c.11,0,.17.06.21.24l0,.43a1,1,0,0,0,0,.32A18.87,18.87,0,0,0,87.45,16l0,.11c0,.13,0,.19-.1.21s-.15-.05-.22-.17c-.7-1.46-1.72-2.08-3.06-1.84a1.86,1.86,0,0,0-1.16.62,1.31,1.31,0,0,0-.31,1.12,1.18,1.18,0,0,0,.57.86,5.89,5.89,0,0,0,1.72.49,7.85,7.85,0,0,1,3,1A2.79,2.79,0,0,1,89,20.24Z"/><path class="c" d="M2.42,87.68c.19-7.8.16-14.32,0-22a14,14,0,0,0,2.59,0c-.2,7.68-.2,14.2,0,22a12.46,12.46,0,0,0-2.59,0"/><path class="c" d="M5,87.68c-.2-7.8-.2-14.32,0-22a14,14,0,0,1-2.59,0c.17,7.68.19,14.2,0,22a12.46,12.46,0,0,1,2.59,0"/><path class="c" d="M20.32,87.68c0-2.68.19-10.11.05-11.87a3.06,3.06,0,0,0-3.14-3.09c-3,0-5.24.06-5.24.06-.16,4.37-.11,10.52,0,14.9a10.61,10.61,0,0,0-2.39,0V72.44a2,2,0,0,1,2-2h5.82a5.29,5.29,0,0,1,5.32,5.29v12a10.88,10.88,0,0,0-2.42,0"/><path class="c" d="M22.74,87.68v-12a5.29,5.29,0,0,0-5.32-5.29H11.6a2,2,0,0,0-2,2V87.68a10.61,10.61,0,0,1,2.39,0c-.11-4.38-.16-10.53,0-14.9,0,0,2.29-.11,5.24-.06a3.06,3.06,0,0,1,3.14,3.1c.14,1.75,0,9.18-.05,11.86a10.88,10.88,0,0,1,2.42,0"/><path class="c" d="M33.09,87.68H26.6a7,7,0,0,0,0-2.23,43.47,43.47,0,0,0,6,0A2.43,2.43,0,0,0,35,83.08,2.26,2.26,0,0,0,33.57,81L29,79.21a4.47,4.47,0,0,1,1.73-8.6h6.51a7.58,7.58,0,0,0,0,2.23,49.41,49.41,0,0,0-6-.06,2.38,2.38,0,0,0-2.51,2.31,2.43,2.43,0,0,0,1.48,2.25l4.53,1.73a4.56,4.56,0,0,1,2.87,4.15,4.43,4.43,0,0,1-4.51,4.46"/><path class="c" d="M37.61,83.22a4.58,4.58,0,0,0-2.87-4.15L30.2,77.35a2.46,2.46,0,0,1-1.48-2.26,2.38,2.38,0,0,1,2.51-2.31,47.38,47.38,0,0,1,6,.06,7.58,7.58,0,0,1,0-2.23H30.73A4.47,4.47,0,0,0,29,79.21L33.57,81a2.27,2.27,0,0,1,1.48,2.12,2.44,2.44,0,0,1-2.43,2.42,43.33,43.33,0,0,1-6,0,7.58,7.58,0,0,1,0,2.23h6.48a4.43,4.43,0,0,0,4.52-4.46"/><path class="c" d="M46.54,87.68c-3.12,0-4.9-2.34-4.9-5.24V65.68a12.53,12.53,0,0,0,2.45,0C44,68.38,44,70,44,70.61h4.23a7.58,7.58,0,0,0,0,2.23,33.13,33.13,0,0,0-4.23,0c0,4.2-.06,9,0,9.52,0,.14.11,3.09,2.71,3.12.52,0,1.14,0,1.5,0a9.78,9.78,0,0,0,0,2.23Z"/><path class="c" d="M52.36,67.63a12.69,12.69,0,0,0,0-1.95h2.42a12.69,12.69,0,0,0,0,1.95Zm0,20.05c.11-5.43.11-12.23,0-17.07a12.23,12.23,0,0,0,2.42,0c-.08,4.84-.11,11.61,0,17.07a10.88,10.88,0,0,0-2.42,0"/><path class="c" d="M64.33,87.68c-3.12,0-4.9-2.34-4.9-5.24V65.68a12.53,12.53,0,0,0,2.45,0c-.06,2.7-.06,4.27-.08,4.93H66a7.58,7.58,0,0,0,0,2.23,33.13,33.13,0,0,0-4.23,0c0,4.2-.06,9,0,9.52,0,.14.11,3.09,2.7,3.12.53,0,1.15,0,1.51,0a9.78,9.78,0,0,0,0,2.23Z"/><path class="c" d="M80.7,87.68H76.27A6.71,6.71,0,0,1,69.59,81V70.61a12.23,12.23,0,0,0,2.42,0c-.08,1-.08,8.71,0,10.49a4.33,4.33,0,0,0,4.46,4.43,36.69,36.69,0,0,0,3.81,0c.23-4.6.09-11.14,0-14.87a12.33,12.33,0,0,0,2.43,0V85.67a2,2,0,0,1-2,2"/><path class="c" d="M92.36,87.68c-3.11,0-4.9-2.34-4.9-5.24V65.68a12.53,12.53,0,0,0,2.45,0c0,2.7,0,4.27-.08,4.93h4.23a7.58,7.58,0,0,0,0,2.23,33.13,33.13,0,0,0-4.23,0c0,4.2,0,9,0,9.52,0,.14.11,3.09,2.7,3.12.53,0,1.14,0,1.5,0a9.78,9.78,0,0,0,0,2.23Z"/><path class="c" d="M94.05,87.68a9.78,9.78,0,0,1,0-2.23c-.36,0-1,0-1.5,0-2.59,0-2.68-3-2.71-3.12-.08-.5,0-5.32,0-9.52a33.13,33.13,0,0,1,4.23,0,7.58,7.58,0,0,1,0-2.23H89.82c0-.66,0-2.23.08-4.93a12.53,12.53,0,0,1-2.45,0V82.44c0,2.9,1.78,5.24,4.9,5.24Zm-11.39-2V70.61a12.13,12.13,0,0,1-2.41,0c.08,3.73.21,10.27,0,14.87a36.89,36.89,0,0,1-3.82,0A4.33,4.33,0,0,1,72,81.1c0-1.78,0-9.43,0-10.49a12.23,12.23,0,0,1-2.42,0V81a6.71,6.71,0,0,0,6.68,6.72h4.43a2,2,0,0,0,2-2M66,87.68a9.78,9.78,0,0,1,0-2.23c-.36,0-1,0-1.5,0-2.59,0-2.68-3-2.7-3.12-.09-.5,0-5.32,0-9.52a33.13,33.13,0,0,1,4.23,0,7.58,7.58,0,0,1,0-2.23H61.79c0-.66,0-2.23.08-4.93a12.53,12.53,0,0,1-2.45,0V82.44c0,2.9,1.78,5.24,4.9,5.24Zm-11.24,0c-.11-5.46-.09-12.23,0-17.07a12.33,12.33,0,0,1-2.43,0c.11,4.84.11,11.64,0,17.07a11,11,0,0,1,2.43,0m0-20.05a10.59,10.59,0,0,1,0-1.95H52.35a10.59,10.59,0,0,1,0,1.95ZM48.24,87.68a9.78,9.78,0,0,1,0-2.23c-.36,0-1,0-1.51,0-2.58,0-2.67-3-2.69-3.12-.09-.5,0-5.32,0-9.52a33.13,33.13,0,0,1,4.23,0,7.58,7.58,0,0,1,0-2.23H44c0-.66,0-2.23.08-4.93a12.53,12.53,0,0,1-2.45,0V82.44c0,2.9,1.78,5.24,4.9,5.24Z"/><path class="c" d="M115.18,77.29H110c0,4.4,0,8.88.11,10.38a22.38,22.38,0,0,0-2.59,0v-20a2.22,2.22,0,0,1,2.23-2.26h5.34a6,6,0,0,1,6.13,6,5.86,5.86,0,0,1-6.07,5.87M115,67.57c-.69,0-3.29,0-4.84.11-.09,1.12-.14,4.07-.14,7.38,2.25.06,4.06.06,5,0a3.76,3.76,0,0,0,0-7.52"/><path class="c" d="M118.63,71.36A3.64,3.64,0,0,1,115,75.09c-.92,0-2.73,0-5,0,0-3.31,0-6.26.14-7.37,1.55-.14,4.15-.12,4.84-.12a3.64,3.64,0,0,1,3.62,3.79m2.62.06a6,6,0,0,0-6.13-6h-5.34a2.23,2.23,0,0,0-2.23,2.26v20a22.38,22.38,0,0,1,2.59,0c-.09-1.5-.14-6-.11-10.38h5.15a5.85,5.85,0,0,0,6.07-5.87"/><path class="c" d="M133.94,87.68c0-.51,0-1.68,0-2.26a5.15,5.15,0,0,1-4.29,2.36,6.63,6.63,0,0,1-6.43-6.62v-5.4a5.41,5.41,0,0,1,5.46-5.32h5.68a1.9,1.9,0,0,1,1.92,1.89V87.68a10.44,10.44,0,0,0-2.37,0m-.22-15c-.17,0-3.09-.08-5.35,0a3.34,3.34,0,0,0-2.78,3.37c0,1.31,0,3.93,0,5.23a4.09,4.09,0,1,0,8.18.09c.06-3.12,0-6.13-.05-8.69"/><path class="c" d="M133.78,81.41a4.23,4.23,0,0,1-4.18,4.09,4.17,4.17,0,0,1-4-4.17c0-1.31,0-3.93,0-5.24a3.33,3.33,0,0,1,2.78-3.37c2.26-.08,5.18,0,5.35,0,.08,2.57.11,5.57.06,8.69m2.53,6.27V72.33a1.9,1.9,0,0,0-1.92-1.89h-5.68a5.4,5.4,0,0,0-5.45,5.32v5.4a6.63,6.63,0,0,0,6.42,6.63A5.16,5.16,0,0,0,134,85.42c0,.58,0,1.75,0,2.26a10.44,10.44,0,0,1,2.37,0"/><path class="c" d="M147.16,87.68h-6.49a7,7,0,0,0,0-2.23,43.48,43.48,0,0,0,6,0,2.43,2.43,0,0,0,2.42-2.42A2.26,2.26,0,0,0,147.64,81l-4.57-1.75a4.47,4.47,0,0,1,1.73-8.6h6.51a7.58,7.58,0,0,0,0,2.23,49.41,49.41,0,0,0-6-.06,2.38,2.38,0,0,0-2.51,2.31,2.43,2.43,0,0,0,1.48,2.25l4.53,1.73a4.56,4.56,0,0,1,2.87,4.15,4.43,4.43,0,0,1-4.51,4.46"/><path class="c" d="M151.68,83.22a4.58,4.58,0,0,0-2.87-4.15l-4.54-1.72a2.46,2.46,0,0,1-1.48-2.26,2.38,2.38,0,0,1,2.51-2.31,47.54,47.54,0,0,1,6,.06,7,7,0,0,1,0-2.23H144.8a4.47,4.47,0,0,0-1.73,8.6L147.64,81a2.26,2.26,0,0,1,1.47,2.12,2.43,2.43,0,0,1-2.42,2.42,43.33,43.33,0,0,1-6,0,7.58,7.58,0,0,1,0,2.23h6.48a4.43,4.43,0,0,0,4.52-4.46"/><path class="c" d="M160.61,87.68c-3.12,0-4.9-2.34-4.9-5.24V65.68a12.53,12.53,0,0,0,2.45,0c-.06,2.7-.06,4.27-.08,4.93h4.23a7.58,7.58,0,0,0,0,2.23,33.13,33.13,0,0,0-4.23,0c0,4.2-.06,9,0,9.52,0,.14.12,3.09,2.71,3.12.52,0,1.13,0,1.5,0a9.78,9.78,0,0,0,0,2.23Z"/><path class="c" d="M167.43,79.91c0,.44,0,.86,0,1.17a4.39,4.39,0,0,0,4.4,4.48c.83,0,3.31.08,5.43-.08a8.12,8.12,0,0,0,0,2.2H171.8A6.64,6.64,0,0,1,165.15,81V75.68a5.36,5.36,0,0,1,5.37-5.38h2a5.41,5.41,0,0,1,5.38,5.43v4.18Zm8.13-4.26a3.19,3.19,0,0,0-3.17-3.15l-1.73,0a3.18,3.18,0,0,0-3.18,3.15c0,.5,0,1.28,0,2.14,1.95.09,6.24.09,8.16,0a12.93,12.93,0,0,0,0-2.09"/><path class="c" d="M192.49,87.68h-4.43A6.71,6.71,0,0,1,181.38,81V70.61a12.23,12.23,0,0,0,2.42,0c-.08,1-.08,8.71,0,10.49a4.33,4.33,0,0,0,4.46,4.43,36.69,36.69,0,0,0,3.81,0c.23-4.6.09-11.14,0-14.87a12.23,12.23,0,0,0,2.42,0V85.67a2,2,0,0,1-2,2"/><path class="c" d="M204.71,72.78A3.14,3.14,0,0,0,201.48,76s-.14,4.4.11,11.63a12.23,12.23,0,0,0-2.42,0V75.84a5.23,5.23,0,0,1,5.26-5.23h2.62a10.39,10.39,0,0,0,0,2.23,17.83,17.83,0,0,0-2.34-.06"/><path class="c" d="M207.07,72.84a10.39,10.39,0,0,1,0-2.23h-2.61a5.24,5.24,0,0,0-5.27,5.23V87.68a11,11,0,0,1,2.43,0c-.25-7.24-.12-11.64-.12-11.64a3.15,3.15,0,0,1,3.23-3.26,17.83,17.83,0,0,1,2.34.06m-12.6,12.83V70.61a12.33,12.33,0,0,1-2.43,0c.09,3.73.23,10.27,0,14.87a36.69,36.69,0,0,1-3.81,0,4.31,4.31,0,0,1-4.45-4.43c-.06-1.78-.06-9.43,0-10.49a12.23,12.23,0,0,1-2.42,0V81a6.71,6.71,0,0,0,6.68,6.71h4.43a2,2,0,0,0,2-2m-18.88-7.93c-1.92.11-6.21.11-8.16,0,0-.86,0-1.64.06-2.14a3.15,3.15,0,0,1,3.17-3.14l1.73,0a3.19,3.19,0,0,1,3.17,3.15,12.93,12.93,0,0,1,0,2.09m2.34,2.17V75.73a5.41,5.41,0,0,0-5.38-5.43h-2a5.36,5.36,0,0,0-5.37,5.38V81a6.64,6.64,0,0,0,6.65,6.66h5.51a8.12,8.12,0,0,1,0-2.2c-2.12.16-4.6.1-5.43.08a4.39,4.39,0,0,1-4.4-4.48c0-.31,0-.72,0-1.17Zm-15.62,7.77a9.78,9.78,0,0,1,0-2.23c-.36,0-1,0-1.5,0-2.59,0-2.67-3-2.7-3.12-.09-.5,0-5.32,0-9.52a33.13,33.13,0,0,1,4.23,0,7.58,7.58,0,0,1,0-2.23h-4.23c0-.67,0-2.23.08-4.93a12.53,12.53,0,0,1-2.45,0V82.44c0,2.9,1.78,5.24,4.9,5.24Z"/><path class="d" d="M200.28,18.7v16c8.25,0,13.67-7.27,13.67-15.17,0-4.34-2-10.41-7.34-10.41-5,0-6.31,5.7-6.32,9.61"/><path class="d" d="M215.91,12.55a15,15,0,0,1,1.72,7.11c0,9.86-7.1,19.57-17.12,21.16V61.64h3.64c5.48,0,7.46-1.08,9.22-2.51a31.48,31.48,0,0,0,2.54-46.58"/><path class="d" d="M161.53,21.48c1.65,1.4,3.92,1.45,5.07.1s.74-3.58-.91-5-3.91-1.45-5.06-.11-.74,3.58.9,5"/><path class="d" d="M193.56,3.24a31.42,31.42,0,0,0-26.17,14,4.19,4.19,0,0,1,0,5,3.77,3.77,0,0,1-3.21,1.22,31.54,31.54,0,0,0,9.61,35.74c2.12,1.71,3.81,2.42,9.2,2.42h1.87c5,0,6.25-1.44,6.25-5,0-3.24,0-15.83,0-15.83-10.84-3.06-18.06-8.75-24.63-15a6.32,6.32,0,0,1,4.5-2.27c5.93,0,11.44,7.39,19.84,9.85V23.85c0-8.46,5.3-17.3,14.59-17.3a13.74,13.74,0,0,1,2.7.26A31.25,31.25,0,0,0,193.56,3.24Z"/></svg>